<svg version="1.1" id="Layer_1" xmlns="http://www.w3.org/2000/svg" xmlns:xlink="http://www.w3.org/1999/xlink" x="0px" y="0px"
	 width="100%" viewBox="0 0 124 116" enable-background="new 0 0 124 116" xml:space="preserve">
<path fill="none" opacity="1.000000" stroke="#000000" stroke-linecap="round" stroke-linejoin="round" stroke-width="3.000000"
	d="
M31.500000,52.500000 
	C32.516834,71.325813 31.802347,90.166939 31.969929,109.000267 
	C31.995335,111.855354 33.142536,113.033798 36.000072,113.025574 
	C53.666595,112.974678 71.333336,113.002945 89.000000,112.997597 
	C92.663879,112.996490 94.091782,111.240692 94.058601,107.499481 
	C93.919678,91.834045 94.068504,76.166077 93.933411,60.500576 
	C93.910561,57.850323 95.552216,55.048820 93.500000,52.500000 
"/>
<path fill="none" opacity="1.000000" stroke="#000000" stroke-linecap="round" stroke-linejoin="round" stroke-width="3.000000"
	d="
M95.000000,55.500000 
	C98.066742,56.316555 100.213760,58.477760 102.544418,60.447441 
	C103.794365,61.503784 105.504852,62.315079 106.999054,60.499226 
	C110.985512,55.654667 115.787720,51.485241 119.495941,45.823982 
	C115.472183,40.557827 109.693573,37.636444 104.994148,33.506660 
	C104.370056,32.958210 103.563423,32.593132 103.015648,31.985880 
	C95.994102,24.201780 86.751663,24.659239 77.498497,24.952675 
	C75.592796,25.013109 75.042244,25.976160 74.469414,27.488413 
	C72.307465,33.195839 68.524475,36.818634 62.000599,36.488190 
	C55.774376,36.172825 52.873497,33.353008 50.324326,24.918760 
	C42.569912,25.742079 34.266449,22.890297 26.992039,28.489656 
	C20.864056,33.206577 14.647539,37.808372 8.509289,42.512119 
	C6.006437,44.430061 5.974505,46.701004 8.008729,48.992249 
	C11.142242,52.521683 14.489285,55.874149 17.448734,59.541370 
	C19.661089,62.282825 21.884624,61.499207 23.954727,59.939899 
	C26.072180,58.344913 27.599239,55.939640 30.500000,55.500000 
"/>
<path fill="none" opacity="1.000000" stroke="#000000" stroke-linecap="round" stroke-linejoin="round" stroke-width="3.000000"
	d="
M56.500000,82.000000 
	C51.833332,82.000000 47.166668,82.000000 42.500000,82.000000 
"/>
<path fill="none" opacity="1.000000" stroke="#000000" stroke-linecap="round" stroke-linejoin="round" stroke-width="3.000000"
	d="
M86.500000,81.500000 
	C80.853630,82.356644 75.168060,81.880615 69.500000,82.000000 
"/>
<path fill="none" opacity="1.000000" stroke="#000000" stroke-linecap="round" stroke-linejoin="round" stroke-width="3.000000"
	d="
M78.500000,75.500000 
	C79.148216,78.138840 83.213989,78.214508 83.000000,81.500000 
"/>
<path fill="none" opacity="1.000000" stroke="#000000" stroke-linecap="round" stroke-linejoin="round" stroke-width="3.000000"
	d="
M46.000000,77.000000 
	C40.660065,82.015762 40.930309,83.817398 47.500000,87.000000 
"/>
</svg>