<svg version="1.1" id="Layer_1" xmlns="http://www.w3.org/2000/svg" xmlns:xlink="http://www.w3.org/1999/xlink" x="0px" y="0px"
	 width="100%" viewBox="0 0 351 351" enable-background="new 0 0 351 351" xml:space="preserve">
<path fill="none" opacity="1.000000" stroke="#000000" stroke-linecap="round" stroke-linejoin="round" stroke-width="10.000000"
	d="
M81.250000,155.500000 
	C78.865120,159.716034 81.595421,163.817169 81.585114,168.000214 
	C81.455460,220.666565 81.606567,273.333801 81.381950,325.999512 
	C81.349289,333.658173 84.641022,338.203186 93.500854,338.154266 
	C148.832489,337.848602 204.166672,338.000000 259.500000,338.000000 
	C267.640442,338.000000 270.492493,335.183594 270.494232,327.000000 
	C270.505524,274.000000 270.542419,220.999908 270.418488,168.000183 
	C270.408691,163.817841 272.996948,159.713272 270.750000,155.500000 
"/>
<path fill="none" opacity="1.000000" stroke="#000000" stroke-linecap="round" stroke-linejoin="round" stroke-width="8.000000"
	d="
M272.500000,160.000000 
	C275.144592,159.961838 277.403381,160.704102 279.535736,162.456528 
	C285.768555,167.578827 292.109558,172.574661 298.518280,177.476089 
	C303.534973,181.312851 307.546356,181.179489 311.946472,176.450195 
	C320.628052,167.119125 329.000000,157.500000 337.500000,148.000000 
	C340.333344,144.833344 343.240051,141.728775 345.983765,138.486252 
	C350.719543,132.889481 350.683228,130.194336 343.474213,124.030167 
	C339.956635,121.022461 336.172668,118.325493 332.498962,115.501358 
	C316.668060,103.331505 300.653168,91.391869 285.063934,78.920097 
	C274.829346,70.732178 263.086578,67.619659 250.496201,67.090294 
	C240.014740,66.649605 229.499924,66.976906 219.000031,67.009438 
	C213.492889,67.026505 212.784439,67.934677 211.962708,73.494492 
	C209.824936,87.958900 199.707596,99.081856 185.448944,102.804436 
	C166.839188,107.663010 150.180862,98.897316 142.523666,82.488953 
	C141.201767,79.656265 140.267517,76.678627 139.974182,73.502388 
	C139.474731,68.094505 138.294449,67.023499 132.999969,67.009186 
	C121.833389,66.978996 110.651115,66.629921 99.504135,67.098335 
	C86.971756,67.624954 75.523827,71.697388 65.488876,79.485664 
	C46.527378,94.201950 27.500635,108.834160 8.499606,123.499489 
	C2.872381,127.842690 2.572371,135.158890 7.470870,140.526581 
	C17.733574,151.772278 27.867056,163.136658 37.987633,174.511002 
	C44.292191,181.596588 47.684971,181.895950 55.014378,176.017929 
	C60.943489,171.262878 67.040222,166.716995 72.977203,161.971497 
	C74.936958,160.405029 77.364777,160.415070 79.500000,159.500000 
"/>
<path fill="none" opacity="1.000000" stroke="#000000" stroke-linecap="round" stroke-linejoin="round" stroke-width="9.000000"
	d="
M157.500000,242.750000 
	C148.000000,242.833328 138.500137,242.943710 128.999954,242.991684 
	C121.000160,243.032104 113.000000,243.000000 105.000000,243.000000 
"/>
<path fill="none" opacity="1.000000" stroke="#000000" stroke-linecap="round" stroke-linejoin="round" stroke-width="9.000000"
	d="
M247.500000,242.750000 
	C229.833328,243.155899 212.166672,243.171356 194.500000,242.750000 
"/>
<path fill="none" opacity="1.000000" stroke="#000000" stroke-linecap="round" stroke-linejoin="round" stroke-width="8.000000"
	d="
M127.499992,226.749985 
	C123.999992,229.333313 120.251160,231.644302 117.057114,234.562500 
	C112.009186,239.174545 111.812912,245.977066 116.555328,250.947205 
	C119.716736,254.260391 123.300537,257.210388 127.500000,259.250000 
"/>
<path fill="none" opacity="1.000000" stroke="#000000" stroke-linecap="round" stroke-linejoin="round" stroke-width="8.000000"
	d="
M224.750000,226.750000 
	C228.166672,229.500000 231.573288,232.262604 235.002487,234.996872 
	C239.489014,238.574203 240.620483,245.898804 235.049622,251.053619 
	C231.886917,253.980103 228.475357,256.510956 224.997818,258.996948 
	C224.848083,259.103973 224.666672,259.166656 224.500000,259.250000 
	C224.583328,259.333344 224.666672,259.416656 224.750000,259.500000 
"/>
</svg>