<svg version="1.1" id="Layer_1" xmlns="http://www.w3.org/2000/svg" xmlns:xlink="http://www.w3.org/1999/xlink" x="0px" y="0px"
	 width="100%" viewBox="0 0 131 97" enable-background="new 0 0 131 97" xml:space="preserve">
<path fill="none" opacity="1.000000" stroke="#000000" stroke-linecap="round" stroke-linejoin="round" stroke-width="2.000000"
	d="
M97.000000,37.000000 
	C99.409454,36.347752 100.468544,38.516953 101.948158,39.572662 
	C103.735863,40.848198 105.358673,42.317318 108.073624,43.436504 
	C112.729729,38.381084 117.443542,33.263004 122.277832,28.014120 
	C121.103554,25.790133 119.412041,24.359041 117.529037,22.960890 
	C113.434937,19.920963 109.096260,17.056349 105.584755,13.418199 
	C98.458397,6.034845 89.603912,6.122032 80.499062,6.475812 
	C78.104622,6.568851 77.566673,7.602430 76.815933,9.940907 
	C74.978859,15.663230 70.343796,18.264730 64.500000,17.999998 
	C58.768959,17.740374 55.939163,15.447721 54.066692,8.980690 
	C53.461243,6.889613 52.278725,6.586158 50.501190,6.480039 
	C40.933918,5.908866 31.862469,6.453298 24.411818,13.911912 
	C20.580801,17.747026 15.895197,20.751524 11.478934,23.971104 
	C8.372005,26.236147 8.115069,28.615709 11.029408,30.963495 
	C15.556376,34.610405 17.831583,40.564323 23.562008,43.354897 
	C26.887859,40.916100 30.096371,38.563347 33.373711,36.160122 
	C35.170162,37.899300 34.460018,39.817177 34.466236,41.500126 
	C34.523514,56.999912 34.490726,72.500008 34.504532,87.999992 
	C34.510113,94.266724 34.757915,94.497452 41.000000,94.498840 
	C56.666668,94.502342 72.333336,94.494820 88.000000,94.505196 
	C90.549622,94.506882 93.089943,94.507912 96.000000,93.278465 
	C96.000000,87.175438 95.921379,80.836540 96.016510,74.500244 
	C96.209198,61.667141 95.458717,48.822422 96.473900,35.997932 
	C96.512192,35.514156 96.166664,35.000000 96.000000,34.500000 
"/>
<path fill="none" opacity="1.000000" stroke="#000000" stroke-linecap="round" stroke-linejoin="round" stroke-width="3.000000"
	d="
M49.000000,71.500000 
	C49.000000,73.916664 49.000000,76.333336 49.000000,78.724739 
	C51.786007,79.536377 54.597382,80.035225 57.500000,79.500000 
"/>
<path fill="none" opacity="1.000000" stroke="#000000" stroke-linecap="round" stroke-linejoin="round" stroke-width="3.000000"
	d="
M59.000000,70.000000 
	C56.333332,72.833336 53.666668,75.666664 51.000000,78.500000 
"/>
<path fill="none" opacity="1.000000" stroke="#000000" stroke-linecap="round" stroke-linejoin="round" stroke-width="3.000000"
	d="
M81.000000,48.500000 
	C82.550476,50.734489 82.203354,53.104523 81.500000,55.500000 
"/>
<path fill="none" opacity="1.000000" stroke="#000000" stroke-linecap="round" stroke-linejoin="round" stroke-width="3.000000"
	d="
M80.000000,48.000000 
	C77.905228,46.898697 75.753067,46.543468 73.500000,47.500000 
"/>
</svg>