<svg version="1.1" id="Layer_1" xmlns="http://www.w3.org/2000/svg" xmlns:xlink="http://www.w3.org/1999/xlink" x="0px" y="0px"
	 width="100%" viewBox="0 0 125 102" enable-background="new 0 0 125 102" xml:space="preserve">
<path fill="none" opacity="1.000000" stroke="#000000" stroke-linecap="round" stroke-linejoin="round" stroke-width="3.000000"
	d="
M32.500000,41.000000 
	C35.511475,46.980042 35.567120,53.593170 36.465847,60.004787 
	C38.013306,71.044586 36.003429,81.811279 33.482685,92.495918 
	C32.240387,97.761635 33.100327,98.991508 38.500004,98.995506 
	C55.166660,99.007820 71.833344,99.009003 88.499992,98.995125 
	C94.354149,98.990257 94.261078,98.789452 93.050598,92.989441 
	C89.613281,76.519554 89.003006,60.004654 92.963814,43.491322 
	C93.286705,42.145142 95.057060,41.982487 94.552277,39.980968 
	C98.522484,42.799603 101.951431,45.233978 105.704697,47.898598 
	C111.399216,43.330452 115.576263,37.549835 120.674408,31.629629 
	C115.047813,26.329002 108.983696,21.953190 102.988998,17.514860 
	C93.772354,10.691087 87.169533,9.298862 75.500000,11.500000 
	C73.748444,19.028051 69.960861,22.500002 63.500000,22.500000 
	C57.039135,22.499998 53.251564,19.028057 51.501396,11.505493 
	C40.651028,10.005152 30.466101,10.427161 21.904251,18.903282 
	C17.309910,23.451624 11.733609,27.008078 6.390725,31.175680 
	C10.825221,37.569599 15.622962,42.788242 20.709501,47.674553 
	C25.313948,46.183823 28.000668,42.310570 32.000000,40.500000 
"/>
<path fill="none" opacity="1.000000" stroke="#000000" stroke-linecap="round" stroke-linejoin="round" stroke-width="3.000000"
	d="
M25.500000,56.000000 
	C27.467606,66.000000 27.467606,76.000000 25.500000,86.000000 
"/>
<path fill="none" opacity="1.000000" stroke="#000000" stroke-linecap="round" stroke-linejoin="round" stroke-width="3.000000"
	d="
M101.500000,56.000000 
	C99.532394,66.000000 99.532394,76.000000 101.500000,86.000000 
"/>
<path fill="none" opacity="1.000000" stroke="#000000" stroke-linecap="round" stroke-linejoin="round" stroke-width="2.000000"
	d="
M104.500000,82.500000 
	C102.557007,87.517029 102.183594,87.623718 97.500000,84.500000 
"/>
<path fill="none" opacity="1.000000" stroke="#000000" stroke-linecap="round" stroke-linejoin="round" stroke-width="2.000000"
	d="
M29.500000,57.500000 
	C24.816404,54.376286 24.442995,54.482975 22.500000,59.500000 
"/>
<path fill="none" opacity="1.000000" stroke="#000000" stroke-linecap="round" stroke-linejoin="round" stroke-width="2.000000"
	d="
M97.500000,57.500000 
	C102.183594,54.376286 102.557007,54.482975 104.500000,59.500000 
"/>
<path fill="none" opacity="1.000000" stroke="#000000" stroke-linecap="round" stroke-linejoin="round" stroke-width="2.000000"
	d="
M22.500000,82.500000 
	C24.442995,87.517029 24.816401,87.623718 29.500000,84.500000 
"/>
</svg>